<svg xmlns="http://www.w3.org/2000/svg" xmlns:xlink="http://www.w3.org/1999/xlink" preserveAspectRatio="none" version="1.0" viewBox="-0.0 -0.0 260.8 359.4" zoomAndPan="magnify" style="fill: rgb(0, 0, 0);" original_string_length="23940"><g id="__id342_skt14nd4cd"><path d="M260.47269,179.70236c0,1.20377,0.25955,2.40576,0.24243,3.60388 c-0.01718,1.20363,0.11591,2.40991,0.08163,3.60764c-0.03442,1.20326-0.52478,2.38753-0.57629,3.58459 c-0.05176,1.20265,0.35068,2.42557,0.28183,3.62173c-0.06915,1.20177-0.53183,2.37599-0.61807,3.57098 c-0.08667,1.20064-0.27533,2.3876-0.37903,3.58116c-0.10422,1.19925-0.05386,2.40797-0.17514,3.59984 c-0.12183,1.19759-0.20334,2.39601-0.34222,3.58591c-0.13956,1.19565-0.16385,2.40334-0.32043,3.59097 c-0.15738,1.19345-0.37604,2.37657-0.55042,3.56166c-0.17526,1.19107-0.55405,2.34692-0.74631,3.52931 c-0.19324,1.18826-0.39847,2.36916-0.60867,3.54839c-0.21127,1.18517-0.16956,2.41408-0.3978,3.58984 c-0.22937,1.18176-0.75362,2.30032-0.99995,3.47234c-0.24762,1.17809-0.41492,2.36845-0.67946,3.53644 c-0.26596,1.17419-0.33292,2.39221-0.61578,3.55591c-0.28439,1.16997-0.85208,2.26518-1.15337,3.42426 c-0.30292,1.16541-0.60039,2.32646-0.9202,3.48058c-0.32156,1.16049-0.748,2.28438-1.08643,3.43317 c-0.34032,1.15523-0.30066,2.42162-0.65779,3.56471c-0.35918,1.1496-0.93779,2.226-1.31378,3.36302 c-0.37814,1.14357-0.86433,2.24483-1.25925,3.37541c-0.39723,1.13715-0.55286,2.35675-0.96684,3.48044 c-0.41643,1.13037-0.8243,2.26221-1.25745,3.3786c-0.43576,1.12311-0.96611,2.20612-1.41855,3.31479 c-0.45522,1.11542-0.83919,2.25809-1.31107,3.35858c-0.47478,1.1073-0.93623,2.2189-1.42766,3.31076 c-0.49448,1.09866-0.90782,2.23444-1.41891,3.31717c-0.51433,1.08957-1.21556,2.08749-1.74644,3.16055 c-0.5343,1.07996-1.13948,2.11987-1.69029,3.18277c-0.5544,1.06979-1.03714,2.17361-1.60802,3.22577 c-0.57465,1.05908-1.36099,1.99496-1.95206,3.0358c-0.59503,1.04779-1.20332,2.07928-1.81473,3.10822 c-0.61554,1.03586-0.9594,2.23184-1.59126,3.2482c-0.63618,1.02332-1.42465,1.9465-2.07712,2.94965 c-0.65697,1.01007-1.34975,1.99042-2.02292,2.97964c-0.67787,0.99615-1.48364,1.89484-2.17764,2.86945 c-0.6989,0.98145-1.42252,1.93393-2.13748,2.89313c-0.72002,0.966-1.08075,2.20087-1.81676,3.14389 c-0.74132,0.94977-1.71283,1.71295-2.47006,2.63901c-0.76273,0.93277-1.53426,1.85117-2.31281,2.7594 c-0.78421,0.91486-1.54419,1.84442-2.34415,2.73392c-0.80591,0.89615-1.67502,1.72678-2.49657,2.59674 c-0.8275,0.87628-1.64809,1.75082-2.49112,2.60007c-0.84909,0.85538-1.71678,1.68311-2.58128,2.51059 c-0.87064,0.83334-1.76407,1.63251-2.64996,2.43707c-0.89209,0.81018-1.70038,1.70743-2.60759,2.48792 c-0.91341,0.78586-1.76302,1.64545-2.69138,2.4007c-0.93456,0.76028-2.03694,1.30261-2.98627,2.03137 c-0.95547,0.73346-1.83113,1.5657-2.80118,2.26669c-0.97609,0.70535-1.89531,1.49014-2.88577,2.16208 c-0.99632,0.67593-2.11151,1.16702-3.12199,1.80859c-1.01613,0.64517-1.92418,1.46368-2.95422,2.07358 c-1.03554,0.61313-2.08824,1.2005-3.13744,1.7774c-1.05434,0.57971-2.1877,1.00977-3.25539,1.55234 c-1.07239,0.54492-2.16965,1.03207-3.25508,1.53891c-1.08958,0.50879-2.13176,1.12112-3.23405,1.59091 c-1.106,0.47141-2.27042,0.79691-3.38879,1.22845c-1.12117,0.43265-2.27716,0.75757-3.41034,1.14957 c-1.13522,0.3927-2.26573,0.78308-3.41257,1.13443c-1.14806,0.35168-2.23235,0.92651-3.39159,1.23615 c-1.15956,0.30969-2.37857,0.38458-3.54887,0.65158c-1.16962,0.26682-2.30748,0.69141-3.4874,0.91495 c-1.17805,0.22321-2.3609,0.45166-3.54878,0.63113c-1.18517,0.17905-2.40977,0.07202-3.60428,0.20694 c-1.19038,0.13443-2.36456,0.45398-3.5638,0.54401c-1.19412,0.08963-2.40492-0.10327-3.60739-0.05829 c-1.19606,0.04474-2.38905,0.04083-3.59296,0.04083c-1.20441,0-2.40953,0.31503-3.60609,0.27023 c-1.20297-0.04501-2.38051-0.45779-3.57513-0.54749c-1.19984-0.09012-2.40701-0.0242-3.59799-0.15875 c-1.19501-0.13504-2.4071-0.13751-3.59276-0.31671c-1.18852-0.17966-2.38583-0.33163-3.56451-0.55508 c-1.18041-0.22375-2.28943-0.78693-3.45953-1.05402c-1.17078-0.26721-2.32407-0.57846-3.48407-0.88843 c-1.15966-0.30988-2.35635-0.47897-3.50481-0.83096c-1.14718-0.35159-2.2875-0.72516-3.42307-1.11816 c-1.13342-0.39224-2.27514-0.76611-3.39655-1.19904c-1.1185-0.43179-2.31418-0.69012-3.4203-1.16174 c-1.10252-0.47012-2.10299-1.18344-3.19279-1.69254c-1.08561-0.50711-2.21261-0.93845-3.28516-1.48367 c-1.06759-0.54269-1.99268-1.35757-3.04691-1.93747c-1.04909-0.57703-2.16298-1.03946-3.19842-1.65277 c-1.02995-0.61002-2.17607-1.04166-3.19212-1.68698c-1.01028-0.64169-1.99125-1.34378-2.98739-2.01978 c-0.99017-0.67197-1.87917-1.49802-2.85497-2.20337c-0.9697-0.70093-1.99188-1.33923-2.947-2.07263 c-0.94891-0.72861-1.94817-1.40555-2.88232-2.16565c-0.92791-0.75507-1.67579-1.73297-2.58876-2.51859 c-0.90674-0.78024-1.75472-1.62756-2.64635-2.43747c-0.88544-0.80429-1.7346-1.64621-2.60478-2.47925 c-0.86407-0.82718-1.76198-1.61942-2.61065-2.47446c-0.84266-0.84897-1.88071-1.51453-2.70786-2.39047 c-0.82125-0.86975-1.61462-1.77499-2.42024-2.67087c-0.79986-0.88947-1.57708-1.80759-2.3612-2.72238 c-0.77853-0.90826-1.38548-1.96512-2.14818-2.89792c-0.75726-0.92615-1.59977-1.78769-2.34111-2.73758 c-0.73608-0.94315-1.50334-1.86835-2.22342-2.8345c-0.715-0.95932-1.43397-1.9223-2.13289-2.90387 c-0.69403-0.9747-1.15696-2.11334-1.83484-3.10959c-0.67318-0.98932-1.65342-1.77872-2.31039-2.78891 c-0.65242-1.00317-1.10629-2.13873-1.74244-3.16208c-0.63176-1.01627-1.18132-2.08478-1.79675-3.12057 c-0.61124-1.02872-1.32883-1.99844-1.92369-3.04602c-0.59087-1.04053-1.30313-2.01953-1.87758-3.07831 c-0.57064-1.05179-0.81563-2.27969-1.36981-3.34909c-0.55056-1.06244-1.36012-1.99646-1.89418-3.07599 c-0.53063-1.07257-1.1511-2.10855-1.66519-3.19763c-0.51084-1.08218-0.65578-2.33688-1.15004-3.43506 c-0.49118-1.09131-1.00651-2.17227-1.48108-3.27902c-0.47166-1.09998-1.18597-2.10162-1.64098-3.21649 c-0.45227-1.10818-0.97186-2.19598-1.40746-3.31857c-0.43301-1.11594-0.77187-2.27365-1.18817-3.4035 c-0.41388-1.12329-0.87618-2.23495-1.27332-3.37167c-0.39486-1.13022-0.7421-2.28244-1.12019-3.42566 c-0.37595-1.13676-0.54616-2.34322-0.90531-3.49254c-0.35716-1.14294-0.93745-2.22191-1.27778-3.37697 c-0.33847-1.14874-0.53203-2.34343-0.85365-3.50388c-0.31985-1.15405-0.46835-2.356-0.77133-3.52136 c-0.3014-1.15926-0.61784-2.31541-0.90234-3.48557c-0.28298-1.16391-0.58329-2.32481-0.84935-3.49922 c-0.26464-1.16812-0.68229-2.3054-0.92999-3.48366c-0.24641-1.17207-0.24226-2.39668-0.47172-3.57851 c-0.22828-1.17577-0.68339-2.31108-0.8947-3.49623c-0.21024-1.17918-0.56192-2.33904-0.75518-3.52724 c-0.1923-1.18236-0.1047-2.41185-0.28-3.60287c-0.17445-1.18527-0.49481-2.353-0.65224-3.54662 c-0.15668-1.18793-0.13679-2.4005-0.27643-3.59644c-0.13897-1.19026-0.48737-2.36067-0.60929-3.55864 c-0.12131-1.19199-0.02001-2.40799-0.12426-3.60736c-0.10375-1.19365-0.52384-2.36594-0.61053-3.56665 c-0.08629-1.19522,0.17054-2.41641,0.10133-3.61842c-0.0689-1.19667-0.3506-2.3855-0.40241-3.58865 c-0.05155-1.19725,0.04937-2.40335,0.01492-3.60678c-0.03431-1.19839-0.26847-2.39633-0.28566-3.60066 c-0.01712-1.19878,0.37122-2.40294,0.37122-3.60738c0-1.20375-0.07872-2.40282-0.06162-3.60094 c0.01718-1.20363,0.12167-2.40016,0.15594-3.59789c0.03443-1.20328-0.10221-2.40813-0.05069-3.60521 c0.05176-1.20264-0.08044-2.41267-0.01159-3.60884c0.06917-1.20177,0.11126-2.40509,0.1975-3.60008 c0.08665-1.20064,0.40166-2.38155,0.50537-3.5751c0.10421-1.19925-0.00178-2.41672,0.11948-3.60858 c0.12184-1.19759,0.53904-2.36078,0.67792-3.55067c0.13956-1.19565,0.10954-2.40941,0.26613-3.59705 c0.15736-1.19345,0.60566-2.3425,0.78004-3.5276c0.17525-1.19107-0.06234-2.44331,0.12992-3.6257 c0.19321-1.18826,0.63518-2.33275,0.84539-3.51198c0.21126-1.18517,0.61968-2.3288,0.84791-3.50458 c0.22939-1.18175,0.29517-2.39156,0.5415-3.56357c0.24762-1.1781,0.69333-2.3077,0.95788-3.47568 c0.26595-1.17419,0.47779-2.35472,0.76066-3.51842c0.28439-1.16996,0.2922-2.40594,0.59348-3.56502 c0.30293-1.16541,0.94793-2.23492,1.26774-3.38904c0.32157-1.16048,0.38509-2.39005,0.72351-3.53884 c0.34032-1.15522,0.93362-2.22907,1.29077-3.37218c0.35917-1.14958,0.66987-2.30837,1.04585-3.4454 c0.37814-1.14357,0.80483-2.26427,1.19976-3.39484c0.39723-1.13716,0.49006-2.37966,0.90404-3.50336 c0.41643-1.13034,1.18924-2.12157,1.6224-3.23798c0.43576-1.1231,0.84807-2.24793,1.30052-3.35661 c0.45521-1.11543,0.88228-2.23553,1.35415-3.33603c0.47478-1.10729,0.69858-2.32075,1.18999-3.41261 c0.49449-1.09868,1.09071-2.14806,1.60179-3.23078c0.51433-1.08958,0.99353-2.19314,1.52442-3.2662 c0.5343-1.07997,0.98059-2.20309,1.53141-3.26598c0.55441-1.06981,1.08713-2.15125,1.65801-3.2034 c0.57465-1.05909,1.41413-1.96848,2.0052-3.00931c0.59503-1.04779,1.10473-2.14031,1.71614-3.16923 c0.61554-1.03587,1.08261-2.16048,1.71448-3.17685c0.63618-1.02331,1.42413-1.94879,2.07658-2.95194 c0.65696-1.01007,1.35337-1.99001,2.02655-2.97925c0.67786-0.99614,1.40106-1.95567,2.09507-2.93027 c0.69889-0.98145,1.58612-1.81688,2.30108-2.77609c0.72002-0.96599,1.13837-2.15532,1.87439-3.09833 c0.74131-0.94979,1.52042-1.86754,2.27764-2.79359c0.76273-0.93277,1.61476-1.78684,2.39332-2.69508 c0.78421-0.91484,1.65512-1.74625,2.45507-2.63576c0.80591-0.89614,1.70204-1.69796,2.5236-2.56793 c0.82751-0.87627,1.59814-1.79554,2.44118-2.6448c0.84909-0.85535,1.49508-1.91212,2.35958-2.73959 c0.87063-0.83334,2.02885-1.35062,2.91475-2.15519c0.89208-0.81018,1.64639-1.76446,2.5536-2.54497 c0.91341-0.78584,1.7132-1.70405,2.64157-2.4593c0.93456-0.76028,2.04003-1.29935,2.98936-2.02811 c0.95547-0.73346,1.82379-1.57647,2.79385-2.27748c0.97607-0.70536,1.97687-1.37124,2.96733-2.04319 c0.99632-0.67593,2.02085-1.30306,3.03133-1.94464c1.01613-0.64517,1.9673-1.3936,2.99734-2.00348 c1.03554-0.61313,2.19531-1.0033,3.24449-1.58019c1.05434-0.57973,2.08434-1.19436,3.15203-1.73691 c1.07238-0.54493,2.21933-0.9217,3.30476-1.42855c1.08958-0.50878,2.17809-0.99756,3.2804-1.46737 c1.10599-0.47138,2.16856-1.03171,3.28692-1.46326c1.12119-0.43264,2.26745-0.78055,3.40063-1.17256 c1.13522-0.39271,2.20207-0.98817,3.34891-1.3395c1.14806-0.3517,2.30943-0.66497,3.46867-0.97459 c1.15955-0.3097,2.34234-0.53017,3.51265-0.79716c1.16961-0.26683,2.37924-0.3265,3.55915-0.55006 c1.17805-0.22321,2.31254-0.6964,3.50042-0.87587c1.18515-0.17905,2.39079-0.22255,3.58528-0.35746 c1.19039-0.13445,2.39961-0.03681,3.59885-0.12683c1.19412-0.08963,2.36777-0.56841,3.57025-0.6134 c1.19607-0.04475,2.40225,0.28631,3.60616,0.28631c1.20441,0,2.39665,0.05467,3.59322,0.09946 c1.20299,0.04503,2.40965-0.10273,3.60428-0.01302c1.19984,0.0901,2.40086,0.15122,3.59184,0.28579 c1.19502,0.13503,2.3631,0.45127,3.54875,0.63048c1.18852,0.17964,2.3611,0.41664,3.53978,0.64007 c1.18042,0.22376,2.35052,0.46687,3.52063,0.73394c1.17078,0.26722,2.35582,0.46123,3.51582,0.7712 c1.15965,0.30987,2.29138,0.70737,3.43983,1.05936c1.14717,0.35159,2.3864,0.42794,3.52196,0.82094 c1.13342,0.39226,2.11836,1.1926,3.23978,1.62552c1.1185,0.43179,2.29955,0.70272,3.40567,1.17435 c1.10252,0.4701,2.23169,0.88679,3.32149,1.39588c1.08562,0.50713,2.16687,1.03286,3.23941,1.57809 c1.0676,0.54271,2.19005,0.99575,3.24428,1.57564c1.04909,0.57705,1.94893,1.42381,2.98438,2.0371 c1.02995,0.61004,2.03105,1.26578,3.0471,1.91112c1.01028,0.64167,1.99324,1.32246,2.98938,1.99848 c0.99017,0.67197,1.92961,1.412,2.90541,2.11736c0.9697,0.70094,2.13104,1.14749,3.08615,1.88087 c0.94893,0.72862,1.76671,1.62926,2.70087,2.38938c0.9279,0.75505,1.85028,1.51868,2.76324,2.30429 c0.90674,0.78025,1.82123,1.55454,2.71284,2.36444c0.88545,0.80428,1.94063,1.43489,2.81081,2.26792 c0.86407,0.82717,1.4901,1.90359,2.33878,2.75862c0.84265,0.84898,1.73067,1.65636,2.55782,2.53234 c0.82124,0.86972,1.55971,1.81774,2.36533,2.71362c0.79987,0.88948,1.88139,1.53823,2.66553,2.45304 c0.77853,0.90828,1.41771,1.94281,2.1804,2.87561c0.75726,0.92616,1.53214,1.8455,2.27348,2.79539 c0.73608,0.94316,1.28813,2.03111,2.00821,2.99725c0.715,0.95934,1.43164,1.91903,2.13057,2.90061 c0.69403,0.97472,1.50934,1.86881,2.18721,2.86506c0.67319,0.98933,1.43706,1.92553,2.09402,2.9357 c0.65244,1.00319,1.28279,2.02861,1.91895,3.05195c0.63176,1.01628,1.18736,2.08566,1.8028,3.12144 c0.61124,1.02872,1.2379,2.0545,1.83276,3.10209c0.59087,1.04054,0.93851,2.21931,1.51294,3.2781 c0.57065,1.05177,1.2449,2.05022,1.79909,3.11964c0.55055,1.06245,1.33076,2.01431,1.86482,3.09383 c0.53064,1.07257,0.71701,2.31602,1.23109,3.40511c0.51085,1.08219,1.34602,2.01917,1.84029,3.11732 c0.49118,1.09132,0.83589,2.2533,1.31046,3.36005c0.47166,1.09997,0.75917,2.2799,1.21419,3.39478 c0.45227,1.10817,0.98108,2.1878,1.41669,3.31038c0.43301,1.11593,1.01471,2.17989,1.43102,3.30975 c0.41386,1.12328,0.53166,2.35574,0.92879,3.49248c0.39487,1.13022,1.07272,2.1671,1.45081,3.31032 c0.37595,1.13676,0.75534,2.27803,1.1145,3.42735c0.35715,1.14294,0.76416,2.27686,1.10449,3.43192 c0.33847,1.14874,0.61003,2.32262,0.93164,3.48306c0.31985,1.15406,0.71321,2.29446,1.01619,3.45982 c0.30141,1.15927,0.16226,2.43239,0.44676,3.60255c0.28299,1.16391,0.90845,2.24969,1.1745,3.4241 c0.26463,1.16814,0.46478,2.35503,0.71248,3.53326c0.24641,1.17209,0.66289,2.31535,0.89235,3.49718 c0.22827,1.17577,0.33563,2.38007,0.54694,3.56522c0.21027,1.17918,0.24533,2.39198,0.4386,3.5802 c0.19229,1.18236,0.66623,2.32573,0.84152,3.51677c0.17447,1.18526-0.10959,2.43788,0.04785,3.6315 c0.15668,1.18793,0.36606,2.36969,0.50571,3.56563c0.13898,1.19026,0.36624,2.37245,0.48816,3.57042 c0.12131,1.19197,0.12045,2.39691,0.2247,3.59628c0.10376,1.19363,0.36697,2.3764,0.45367,3.57712 c0.08627,1.19522,0.26608,2.38814,0.3353,3.59015c0.06891,1.19667,0.01337,2.40324,0.06519,3.6064 c0.05154,1.19725,0.23621,2.39351,0.27066,3.59694c0.03433,1.19839-0.30011,2.40691-0.28293,3.61122 C260.43826,177.29947,260.47269,178.49792,260.47269,179.70236z" style="fill: rgb(232, 189, 194);"/></g><g id="__id343_skt14nd4cd"><path d="M135.83369,349.54242c-0.90137,0-1.79979-0.01627-2.69041-0.02457c-0.91016-0.00879-1.82033-0.23428-2.73341-0.23428 c-0.26758,0-0.26759,0.0643-0.53517,0.06442c-4.5503,0.00195-9.28721,0.15128-13.8336-0.60995 c-3.91846-0.65576-9.06557-1.64398-14.04359-3.33344c-4.19775-1.4248-8.47947-3.41983-13.18699-5.85587 c-3.62988-1.87793-7.3638-4.26685-12.18265-7.6604c-3.54639-2.49707-7.62588-5.44614-11.36221-8.82309 c-2.50586-2.26562-4.87764-4.80447-7.0671-7.36697c-0.89941-1.05225-1.6859-2.21304-2.61364-3.25504 c-3.4707-3.89795-6.68294-7.96365-9.00423-11.14676c-0.68311-0.93652-1.38639-1.86307-2.08463-2.7991 c-2.1167-2.83545-4.34943-5.7453-6.24641-8.89716c-0.47609-0.79022-0.35798-0.86148-0.8352-1.65103 c-2.11279-3.49365-4.43562-7.03256-6.31892-10.82602c-2.0293-4.08643-4.03952-8.52109-5.90671-13.12167 c-1.78662-4.40332-3.40971-8.95978-4.89604-13.5257c-0.88965-2.7334-1.59229-5.59209-2.15333-8.38896 c-0.36865-1.8374-0.59831-3.77348-1.0656-5.6226c-0.35791-1.4165-0.914-2.78696-1.29828-4.20737 c-0.84863-3.13721-1.56477-6.41689-2.17415-9.71474c-0.14511-0.78426-0.30672-0.75429-0.45247-1.53842 c-0.76221-4.09814-1.4642-8.35104-1.98031-12.62057c-0.396-3.27637-0.47521-6.66048-0.62316-9.93098 c-0.06592-1.46582-0.19816-2.93385-0.28556-4.40651c-0.0835-1.40234-0.1702-2.80957-0.27322-4.22021 c-0.24072-3.30273-0.46297-6.71506-0.46297-10.12326c0-3.53516,0.12768-7.08231,0.36498-10.50906 c0.08887-1.28369,0.31707-2.55466,0.39324-3.83151c0.24072-4.0376,0.65607-8.06113,1.13556-11.94785 c0.14297-1.16203,0.10246-1.16696,0.24404-2.32916c0.23242-1.92041,0.41416-3.8779,0.54698-5.77634 c0.19727-2.81689,0.46819-5.71663,0.98625-8.5179c0.68945-3.73096,1.64158-7.41475,2.56395-10.98164 c0.25976-1.00391,0.3729-2.04211,0.62486-3.04065c0.80127-3.17383,2.05787-6.21613,3.10474-9.21075 c0.51318-1.46875,0.86457-2.98629,1.34162-4.45309c0.4585-1.4082,0.96188-2.79636,1.39352-4.20163 c0.95996-3.12646,2.03886-6.32339,3.27666-9.3727c0.42432-1.04492,0.7753-2.11732,1.18985-3.16126 c1.34082-3.37598,2.63228-6.9112,4.24849-10.1656c2.05908-4.14795,4.4236-8.1216,6.7278-11.94728 c0.17822-0.2959,0.3223-0.20914,0.50047-0.50507c1.8252-3.03174,3.80555-5.95018,5.86024-8.67723 c0.78711-1.04492,1.74855-1.9534,2.51223-2.99978c2.83252-3.88477,5.75446-7.59223,8.96002-11.19331 c0.9082-1.02002,1.91811-1.94241,2.79946-2.97024c2.20801-2.57715,4.44608-5.28457,6.97294-7.56924 c3.65625-3.30469,7.56703-6.27395,11.30434-8.90579c4.41406-3.10791,8.51298-5.42526,12.33231-7.40036 c0.84117-0.43589,0.7692-0.57433,1.60929-1.01228c3.66748-1.91309,7.47585-3.8847,11.4153-5.22162 c4.4668-1.51562,9.2094-2.31411,13.78509-3.07973c0.16234-0.02716,0.17929,0.07415,0.34164,0.04697 c4.0708-0.68164,8.49331-1.12668,14.35024-1.12668c0.354,0,0.35416,0.17193,0.70816,0.1709 c4.51074-0.01514,9.20898-0.13607,13.70117,0.61589c4.74316,0.79443,9.32954,2.52653,13.80611,4.04558 c4.62598,1.57031,8.99971,3.64481,13.1667,5.80155c4.5332,2.3457,8.45906,4.91162,12.19051,7.53857 c4.6748,3.29199,8.25328,5.89874,11.38609,8.73029c3.14355,2.84229,6.84256,6.2494,10.24881,10.07655 c3.08984,3.47021,5.6998,7.28572,8.71445,11.42c2.69043,3.68896,5.42349,7.5081,8.0524,11.87577 c0.87207,1.44922,1.67804,3.00351,2.60577,4.41415c1.66309,2.52979,3.48265,5.08433,4.8723,7.88267 c1.69727,3.41992,3.1142,7.11268,4.53607,10.66102c0.34668,0.8667,0.7206,1.72526,1.07216,2.59342 c1.2002,2.95703,2.26759,6.05844,3.18361,9.0936c0.45508,1.50537,0.82123,3.04364,1.31146,4.54999 c1.35352,4.1582,2.71826,8.65045,4.01123,13.77057c0.44141,1.74414,0.97438,3.51149,1.48512,5.22682 c0.83398,2.79932,1.57593,5.72887,2.12183,8.6859c0.69531,3.75586,1.23642,7.65186,1.6788,11.42969 c0.10938,0.93359,0.25691,1.86377,0.36922,2.79932c0.38672,3.19336,0.34787,6.50204,0.48166,9.68613 c0.06445,1.54932,0.19156,3.101,0.28433,4.65862c0.11426,1.91016,0.2253,3.8824,0.44405,5.77644 c0.32129,2.79395,0.64703,5.66965,0.64703,8.55734c0,2.93262-0.1924,5.86903-0.49709,8.70888 c-0.19824,1.84961-0.37126,3.76465-0.48259,5.62988c-0.06641,1.12695-0.19521,2.24812-0.25478,3.37019 c-0.19238,3.60449-0.2608,7.3452-0.69733,10.95702c-0.59668,4.93848-1.49156,9.68973-2.32066,14.1741 c-0.66309,3.58643-1.61752,7.10596-2.5101,10.52344c-0.29883,1.14209-0.59711,2.28212-0.88519,3.4203 c-0.41406,1.64209-0.72263,3.33594-1.08591,4.95703c-0.66895,2.9873-1.20163,6.12372-2.15573,9.05585 c-0.99512,3.05859-2.47636,5.94124-3.72539,8.79768c-0.64746,1.48096-1.15898,3.01236-1.76054,4.49478 c-0.5918,1.4585-1.1754,2.91394-1.73106,4.37439c-1.13184,2.97656-2.38966,6.01468-3.81252,8.88138 c-1.45312,2.92725-3.09671,5.74585-4.79984,8.40649c-0.84863,1.32471-1.7563,2.6022-2.55806,3.93423 c-0.75391,1.25146-1.56937,2.46103-2.29202,3.71591c-1.64648,2.8584-3.20224,5.90689-5.15244,8.5817 c-2.14746,2.94385-4.72194,5.51468-7.08815,8.10306c-0.81543,0.89209-1.50043,1.89548-2.2973,2.7905 c-3.16406,3.5542-6.47246,6.89059-10.11015,10.17966c-3.57129,3.22803-7.28049,6.10782-11.24631,8.9003 c-1.24512,0.87598-2.48932,1.79858-3.68268,2.70435c-2.5918,1.96582-5.24088,4.05746-8.14517,5.55991 c-3.49805,1.81006-7.28764,3.01431-10.93022,4.21402c-0.86523,0.28516-1.72464,0.5806-2.58206,0.87161 c-4.22461,1.43311-9.02133,3.03967-13.88852,3.85413C141.85179,349.35611,138.821,349.54242,135.83369,349.54242z M130.40987,348.29111c0.91602,0,1.832,0.01675,2.74509,0.02505c3.79785,0.03613,7.74678,0.28833,11.49385-0.3396 c4.78809-0.80127,9.53264-2.47717,13.72112-3.89856c0.85938-0.29199,1.67816-0.71967,2.54633-1.0058 c3.60645-1.1875,7.32666-2.39572,10.75439-4.16916c2.82715-1.46289,5.41986-3.27036,8.09564-5.30014 c1.20117-0.91064,2.46999-1.81055,3.72878-2.69678c3.93262-2.76953,7.58263-5.66959,11.12462-8.87027 c3.61035-3.26416,6.78412-6.6767,9.92474-10.20355c0.79883-0.89795,1.72998-1.6846,2.54834-2.58011 c2.34863-2.56836,4.67447-5.31378,6.78873-8.21222c1.91895-2.63135,3.52388-5.43518,5.23189-8.401 c0.72559-1.26025,1.41364-2.55264,2.17047-3.80948c0.80762-1.33984,1.77394-2.59341,2.62746-3.92593 c1.68848-2.63818,3.29655-5.44077,4.72527-8.31967c1.40234-2.82275,2.69221-5.81808,3.81526-8.77219 c0.55859-1.46729,1.15359-2.92603,1.74832-4.39136c0.60449-1.49072,1.13599-3.02209,1.78735-4.51184 c1.23828-2.83398,2.66597-5.7117,3.64644-8.72391c0.93945-2.88721,1.45386-6.00172,2.11792-8.96657 c0.36426-1.62695,0.90205-3.27153,1.32002-4.9268c0.28809-1.14062,0.42688-2.32352,0.72668-3.46805 c0.88867-3.3999,1.89243-6.89488,2.54965-10.44518c0.82422-4.46387,1.61569-9.21277,2.21042-14.13074 c0.43262-3.57861,0.56461-7.29839,0.75504-10.88628c0.06055-1.12402,0.13646-2.24986,0.20384-3.37926 c0.1123-1.88916,0.34523-3.80881,0.54543-5.67014c0.30176-2.81396,0.49559-5.73004,0.49559-8.60944 c0-2.83057-0.19005-5.70029-0.50841-8.4664c-0.21973-1.90771-0.5266-3.87083-0.64183-5.80833 c-0.09375-1.56348-0.19908-3.12221-0.26451-4.67738c-0.13281-3.16455-0.2253-6.43954-0.60713-9.59384 c-0.11328-0.93701-0.15503-1.88142-0.2644-2.81599c-0.44043-3.76172-0.89659-7.65633-1.58409-11.37996 c-0.53711-2.9043-1.53758-5.73796-2.36375-8.51237c-0.51465-1.7251-0.86989-3.55695-1.3152-5.32111 c-1.28809-5.09863-2.73146-9.54198-4.07814-13.6787c-0.49219-1.51318-0.88136-3.05418-1.33742-4.56638 c-0.91016-3.01318-1.76486-6.16541-2.9465-9.07948c-0.35352-0.86963-0.76674-1.71288-1.1144-2.58104 c-1.41406-3.53027-2.97217-7.13607-4.65283-10.52084c-1.3623-2.74414-3.08174-5.31324-4.7292-7.81812 c-0.93262-1.41846-1.75542-2.97513-2.63823-4.44144c-2.61328-4.3418-5.32722-8.13702-8.00105-11.80254 c-2.99805-4.1123-5.55818-7.93584-8.61775-11.37236c-3.375-3.7915-7.19696-7.01749-10.32001-9.84122 c-3.10156-2.80371-6.44685-5.63872-11.08748-8.90678c-3.69336-2.6001-7.70647-4.94175-12.19865-7.26695 c-4.13477-2.13916-8.4366-4.26113-12.95906-5.7958c-4.4707-1.51758-9.01273-3.25096-13.67679-4.03172 c-4.4082-0.73779-9.05132-0.58498-13.53276-0.5801c-0.35449,0.00033-0.35457-0.01327-0.70906-0.01327 c-5.79932,0-10.16261,0.30293-14.17677,0.97481c-0.16234,0.02717-0.17929-0.07413-0.34164-0.04698 c-4.53662,0.75879-9.18604,1.67913-13.57666,3.16887c-3.86621,1.31201-7.68668,3.11393-11.32047,5.00993 c-0.84152,0.43876-0.77979,0.55759-1.6224,0.99426c-3.77832,1.9541-7.82989,4.26025-12.20586,7.3413 c-3.71191,2.61377-7.54092,5.61524-11.15714,8.88428c-2.47998,2.2417-4.76768,4.64286-7.05625,7.31376 c-0.88525,1.03271-1.65501,2.17419-2.56712,3.19909c-3.18896,3.58154-6.25625,7.12741-9.06289,10.97555 c-0.76611,1.05078-1.6946,1.9901-2.48513,3.03942c-2.03906,2.70654-4.00162,5.60333-5.79996,8.59064 c-0.17826,0.29612-0.33305,0.20292-0.51136,0.49901c-2.29395,3.80859-4.56476,7.80476-6.60627,11.91608 c-1.59766,3.21777-3.03037,6.66572-4.36386,10.02265c-0.41553,1.0459-0.80672,2.10474-1.23153,3.15161 c-1.22168,3.00879-2.08804,6.25753-3.04214,9.36349c-0.43311,1.41064-0.9579,2.79957-1.41786,4.21314 c-0.47998,1.47363-0.91778,2.97049-1.4334,4.44608c-1.03955,2.97412-2.1056,6.04119-2.89612,9.17205 c-0.25293,1-0.63366,1.97219-0.89342,2.97756c-0.91797,3.55078-1.78305,7.23856-2.46616,10.93484 c-0.50781,2.74561-0.67053,5.62479-0.86584,8.41385c-0.13379,1.91064-0.44913,3.87051-0.68399,5.81583 c-0.14162,1.16345-0.08063,1.17087-0.22387,2.33412c-0.47803,3.87109-1.08633,7.86743-1.3251,11.87378 c-0.07617,1.27979-0.17047,2.56146-0.25982,3.84808c-0.23633,3.41016-0.3587,6.94455-0.3587,10.44504 c0,3.37158,0.28008,6.7663,0.51982,10.05096c0.10352,1.41504,0.13784,2.82967,0.22183,4.2364 c0.08789,1.47754,0.28517,2.94672,0.35108,4.41742c0.14697,3.25195,0.12379,6.62878,0.51588,9.86755 c0.51172,4.23828,1.26524,8.47113,2.02452,12.55414c0.14587,0.78465,0.14602,0.78453,0.29128,1.56929 c0.60205,3.25781,1.54263,6.47258,2.38589,9.59026c0.38574,1.42578,0.93047,2.80534,1.28984,4.22722 c0.47314,1.87305,0.65911,3.83136,1.0302,5.68097c0.55566,2.76855,1.27074,5.59624,2.14281,8.27397 c1.479,4.54346,3.10262,9.07538,4.88045,13.45673c1.854,4.56836,3.89528,8.96356,5.91628,13.03339 c1.86475,3.75586,4.15773,7.28458,6.25929,10.76065c0.47769,0.79053,0.4129,0.82968,0.88966,1.62079 c1.87207,3.10889,3.96329,6.08249,6.06535,8.89841c0.70068,0.93896,1.53852,1.77078,2.22358,2.71072 c2.30811,3.16455,5.27086,7.39798,8.71276,11.2637c0.93213,1.04736,1.9697,1.99673,2.87351,3.05435 c2.26855,2.65527,4.40886,5.15121,6.86686,7.37338c3.69434,3.33984,7.71658,6.31259,11.23953,8.79306 c4.78027,3.36621,8.50247,5.70929,12.09085,7.56622c4.66211,2.41211,8.96723,4.20667,13.11713,5.61487 c4.91064,1.66699,9.97828,2.66595,13.85963,3.31537c4.46533,0.74707,8.9432,0.73093,13.64778,0.73337 C130.14954,348.35947,130.14229,348.29111,130.40987,348.29111z" style="fill: inherit;"/></g></svg>